# xmcd CD database file
#
# Track frame offsets:
#	150
#	14160
#	28817
#	49195
#	61427
#	73947
#	97705
#	115257
#	131775
#	151570
#	172115
#	190632
#	210962
#	235360
#	261070
#
# Disc length: 3775 seconds
#
# Revision: 0
# Processed by: cddbd v1.5.2PL0 Copyright (c) Steve Scherf et al.
# Submitted via: CDex 1.70beta3
#
DISCID=cf0ebd0f
DTITLE=Bobby Valentin - Early Days
DYEAR=1995
DGENRE=Salsa
TTITLE0=Margarito
TTITLE1=Maina
TTITLE2=Zip Zap
TTITLE3=Batman's Bugaloo
TTITLE4=Bad Breath
TTITLE5=Tu Eres Mi Coco
TTITLE6=Pan de Negro
TTITLE7=Huracan
TTITLE8=Pobre Soy
TTITLE9=Papel de Payaso
TTITLE10=Muero En Tu Tierra
TTITLE11=La Pirata Del Mar
TTITLE12=Cuando Te Vea
TTITLE13=Mi Ritmo Es Bueno
TTITLE14=Soy Boricua
EXTD=YEAR: 1995
EXTT0=
EXTT1=
EXTT2=
EXTT3=
EXTT4=
EXTT5=
EXTT6=
EXTT7=
EXTT8=
EXTT9=
EXTT10=
EXTT11=
EXTT12=
EXTT13=
EXTT14=
PLAYORDER=
